# xmcd CD database file
#
# Track frame offsets:
#	150
#	18742
#	36362
#	52152
#	69677
#	85247
#	101775
#	118525
#	136975
#	151610
#	169175
#
# Disc length: 2477 seconds
#
# Revision: 4
# Processed by: cddbd v1.4PL0 Copyright (c) Steve Scherf et al.
# Submitted via: CDex 1.40Release
#
DISCID=9609ab0b
DTITLE=Phil Vassar - Phil Vassar
DYEAR=2000
DGENRE=Country
TTITLE0=Carlene
TTITLE1=Just Another Day In Paradise
TTITLE2=That's When I Love You
TTITLE3=Rose Bouquet
TTITLE4=Joe and Rosalita
TTITLE5=Six-Pack Summer
TTITLE6=Lucky As Me
TTITLE7=Like I Never Loved Before
TTITLE8=Didn't You Know She's Gone
TTITLE9=Somewhere In Between
TTITLE10=Drive Away
EXTD=YEAR: 2000 ID3G: 2
EXTT0=
EXTT1=
EXTT2=
EXTT3=
EXTT4=
EXTT5=
EXTT6=
EXTT7=
EXTT8=
EXTT9=
EXTT10=
PLAYORDER=
